<svg xmlns="http://www.w3.org/2000/svg" viewBox="0 0 60 40"><rect y="0.000" width="60" height="3.077" fill="#B22234"/><rect y="3.077" width="60" height="3.077" fill="#fff"/><rect y="6.154" width="60" height="3.077" fill="#B22234"/><rect y="9.231" width="60" height="3.077" fill="#fff"/><rect y="12.308" width="60" height="3.077" fill="#B22234"/><rect y="15.385" width="60" height="3.077" fill="#fff"/><rect y="18.462" width="60" height="3.077" fill="#B22234"/><rect y="21.538" width="60" height="3.077" fill="#fff"/><rect y="24.615" width="60" height="3.077" fill="#B22234"/><rect y="27.692" width="60" height="3.077" fill="#fff"/><rect y="30.769" width="60" height="3.077" fill="#B22234"/><rect y="33.846" width="60" height="3.077" fill="#fff"/><rect y="36.923" width="60" height="3.077" fill="#B22234"/><rect width="24" height="21.538" fill="#3C3B6E"/><polygon points="4.000,2.000 4.449,3.382 5.902,3.382 4.727,4.236 5.176,5.618 4.000,4.764 2.824,5.618 3.273,4.236 2.098,3.382 3.551,3.382" fill="#fff"/><polygon points="9.500,2.000 9.949,3.382 11.402,3.382 10.227,4.236 10.676,5.618 9.500,4.764 8.324,5.618 8.773,4.236 7.598,3.382 9.051,3.382" fill="#fff"/><polygon points="15.000,2.000 15.449,3.382 16.902,3.382 15.727,4.236 16.176,5.618 15.000,4.764 13.824,5.618 14.273,4.236 13.098,3.382 14.551,3.382" fill="#fff"/><polygon points="20.500,2.000 20.949,3.382 22.402,3.382 21.227,4.236 21.676,5.618 20.500,4.764 19.324,5.618 19.773,4.236 18.598,3.382 20.051,3.382" fill="#fff"/><polygon points="4.000,7.500 4.449,8.882 5.902,8.882 4.727,9.736 5.176,11.118 4.000,10.264 2.824,11.118 3.273,9.736 2.098,8.882 3.551,8.882" fill="#fff"/><polygon points="9.500,7.500 9.949,8.882 11.402,8.882 10.227,9.736 10.676,11.118 9.500,10.264 8.324,11.118 8.773,9.736 7.598,8.882 9.051,8.882" fill="#fff"/><polygon points="15.000,7.500 15.449,8.882 16.902,8.882 15.727,9.736 16.176,11.118 15.000,10.264 13.824,11.118 14.273,9.736 13.098,8.882 14.551,8.882" fill="#fff"/><polygon points="20.500,7.500 20.949,8.882 22.402,8.882 21.227,9.736 21.676,11.118 20.500,10.264 19.324,11.118 19.773,9.736 18.598,8.882 20.051,8.882" fill="#fff"/><polygon points="4.000,13.000 4.449,14.382 5.902,14.382 4.727,15.236 5.176,16.618 4.000,15.764 2.824,16.618 3.273,15.236 2.098,14.382 3.551,14.382" fill="#fff"/><polygon points="9.500,13.000 9.949,14.382 11.402,14.382 10.227,15.236 10.676,16.618 9.500,15.764 8.324,16.618 8.773,15.236 7.598,14.382 9.051,14.382" fill="#fff"/><polygon points="15.000,13.000 15.449,14.382 16.902,14.382 15.727,15.236 16.176,16.618 15.000,15.764 13.824,16.618 14.273,15.236 13.098,14.382 14.551,14.382" fill="#fff"/><polygon points="20.500,13.000 20.949,14.382 22.402,14.382 21.227,15.236 21.676,16.618 20.500,15.764 19.324,16.618 19.773,15.236 18.598,14.382 20.051,14.382" fill="#fff"/></svg>